<svg width="101" height="104" viewBox="0 0 101 104" fill="none" xmlns="http://www.w3.org/2000/svg">
<path fill-rule="evenodd" clip-rule="evenodd" d="M81.7799 2.58329C85.83 0.441577 90.483 4.15362 88.9679 8.31767L84.6589 19.588C83.3584 22.9897 80.8336 25.8504 77.536 27.6588L72.3606 30.4969C69.9596 31.8136 67.0326 31.7521 64.7396 30.406L79.8704 12.679C80.1033 12.4061 80.065 12.0077 79.7843 11.7838C79.5037 11.5599 79.0844 11.5932 78.8422 11.8587L63.1075 29.104C61.315 27.1908 60.7431 24.4609 61.69 21.9841L63.7311 16.6456C65.0316 13.244 67.5564 10.3833 70.854 8.57488L81.7799 2.58329ZM73.3713 32.185C70.2324 33.9063 66.3887 33.7803 63.434 31.9357L55.8642 40.8043L57.067 77.19C57.0711 77.314 57.0696 77.4368 57.0626 77.5582C65.3801 78.1448 73.0477 79.7787 79.5451 82.1925L79.7641 75.5683L75.9224 71.0674C74.3638 72.0405 72.3361 72.107 70.6802 71.1989L67.9503 69.7019C65.9877 68.6256 64.4851 66.9231 63.7111 64.8986L61.4354 58.9465C60.3013 55.8522 63.7629 53.0906 66.7712 54.6898L72.5413 57.8541C74.5039 58.9303 76.0065 60.6329 76.7805 62.6573L77.8572 65.4734C78.5102 67.1813 78.0893 69.0682 76.8108 70.3585L79.8271 73.6644L80.4456 54.954C80.4636 54.4084 80.9111 53.9754 81.4571 53.9754C82.003 53.9754 82.4506 54.4084 82.4686 54.954L82.7922 64.7446L85.7576 61.4946C84.5607 60.2867 84.1667 58.5205 84.7779 56.9217L85.7857 54.2858C86.5102 52.3908 87.9167 50.7972 89.7537 49.7898L95.1547 46.828C97.9706 45.3311 101.211 47.916 100.149 50.8124L98.0191 56.3837C97.2946 58.2787 95.8881 59.8723 94.0511 60.8797L91.4958 62.281C89.946 63.1309 88.0481 63.0687 86.5892 62.158L82.8515 66.537L83.4218 83.7879C92.3899 87.867 98.4949 93.5698 99.9919 100H0.357544C2.07584 92.6189 9.86609 86.1961 21.0888 82.0876L21.2391 77.5429L18.0874 73.8505C16.8088 74.6488 15.1455 74.7033 13.7871 73.9584L11.5477 72.7303C9.93766 71.8474 8.705 70.4508 8.07006 68.79L6.20326 63.9073C5.27289 61.3688 8.11261 59.1034 10.5804 60.4153L15.3139 63.0111C16.9239 63.894 18.1566 65.2906 18.7915 66.9514L19.6747 69.2615C20.2104 70.6626 19.8651 72.2105 18.8163 73.2691L21.2907 75.9811L21.7981 60.632C21.8129 60.1844 22.18 59.8292 22.6279 59.8292C23.0757 59.8292 23.4429 60.1844 23.4577 60.632L23.7231 68.6628L26.1554 65.9972C25.1739 65.0064 24.8507 63.5576 25.3521 62.2462L26.1788 60.0839C26.7732 58.5293 27.927 57.222 29.434 56.3956L33.8647 53.9659C36.1746 52.7379 38.8326 54.8584 37.9618 57.2345L36.2144 61.8049C35.6201 63.3594 34.4663 64.6667 32.9593 65.4931L30.8631 66.6427C29.5915 67.3399 28.0344 67.2888 26.8376 66.5415L23.7717 70.1332L24.1328 81.0566C31.4148 78.7807 39.914 77.4305 49.0112 77.3241C49.0112 77.2796 49.0119 77.2349 49.0134 77.19L49.6116 59.0944L41.8313 49.9791C38.6747 51.9498 34.5682 52.0844 31.2147 50.2455L25.6857 47.2134C21.7109 45.0337 18.6677 41.5856 17.1001 37.4855L12.4913 25.4308C10.1944 19.1639 17.2051 13.5709 23.2976 16.8098L34.9839 23.2184C38.9586 25.3981 42.0018 28.8462 43.5694 32.9463L45.7499 38.6496C47.0725 42.1088 46.22 45.9303 43.6306 48.5437L49.7391 55.2386L50.9917 17.3461C51.0282 16.2411 51.9346 15.3642 53.0402 15.3642C54.1459 15.3642 55.0522 16.2411 55.0888 17.3461L55.7442 37.1742L61.7498 30.5921C59.326 28.1459 58.528 24.5688 59.7659 21.3309L61.807 15.9924C63.2743 12.1546 66.1228 8.92706 69.8433 6.88679L80.782 0.888167C86.4848 -2.1435 93.047 3.0917 90.897 8.95767L86.583 20.2413C85.1157 24.0791 82.2672 27.3066 78.5467 29.3469L73.3713 32.185ZM1.3113e-06 103.087C4.47035e-07 103.089 0 103.091 0 103.093C0 103.095 4.47035e-07 103.097 1.3113e-06 103.099V103.087ZM22.2997 18.5049C17.8598 16.156 12.7583 20.2258 14.4204 24.7908L19.0242 36.8323C20.425 40.4962 23.1445 43.5775 26.6964 45.5253L32.2254 48.5574C34.8411 49.9917 38.0308 49.9217 40.5258 48.4496L24.2715 29.4063C24.0227 29.1148 24.0636 28.6892 24.3635 28.45C24.6633 28.2108 25.1113 28.2464 25.3701 28.5299L42.273 47.0557C44.231 44.9752 44.8574 42.0009 43.8259 39.3029L41.6453 33.5995C40.2445 29.9356 37.525 26.8543 33.9731 24.9065L22.2997 18.5049ZM36.0316 56.5971C36.271 55.9211 35.5187 55.3209 34.86 55.6624L30.4447 58.0837C29.3605 58.6782 28.5305 59.6187 28.1029 60.7371L27.2762 62.8994C27.0661 63.449 27.1657 64.0502 27.5193 64.5025L33.0793 58.409C33.1774 58.3015 33.3473 58.288 33.461 58.3787C33.5746 58.4694 33.5902 58.6307 33.4958 58.7413L28.149 65.0051C28.679 65.2578 29.3193 65.2468 29.8523 64.9546L31.9486 63.805C33.0327 63.2105 33.8628 62.27 34.2903 61.1517L36.0316 56.5971ZM8.13324 63.2695C7.83493 62.4314 8.76831 61.6867 9.58466 62.1116L14.3032 64.6992C15.4903 65.3502 16.3992 66.38 16.8674 67.6046L17.7506 69.9147C17.9951 70.5541 17.8737 71.2545 17.4535 71.7755L11.4194 65.1621C11.3146 65.0472 11.1332 65.0328 11.0117 65.1297C10.8903 65.2266 10.8737 65.399 10.9745 65.5171L16.777 72.3152C16.1644 72.6182 15.4178 72.6103 14.7979 72.2703L12.5584 71.0422C11.3712 70.3912 10.4623 69.3614 9.99414 68.1368L8.13324 63.2695ZM96.1511 48.5239C97.3151 47.9149 98.6482 48.9783 98.2194 50.174L96.095 55.7305C95.5373 57.1893 94.4546 58.4161 93.0404 59.1916L90.4851 60.5929C89.6735 61.038 88.6924 61.0389 87.8982 60.6244L94.7051 52.6495C94.8201 52.5148 94.8012 52.3181 94.6626 52.2075C94.524 52.097 94.317 52.1134 94.1974 52.2445L87.1188 60.0027C86.5514 59.331 86.3819 58.4122 86.702 57.5749L87.7098 54.939C88.2675 53.4802 89.3503 52.2534 90.7644 51.4779L96.1511 48.5239ZM65.7746 56.3857C64.4183 55.6746 62.8641 56.9145 63.3651 58.3079L65.6351 64.2454C66.2424 65.8337 67.4213 67.1694 68.961 68.0138L71.6909 69.5108C72.6086 70.0141 73.7196 70.0109 74.614 69.5344L67.2518 60.909C67.129 60.7651 67.1492 60.555 67.2973 60.4368C67.4453 60.3187 67.6665 60.3363 67.7943 60.4763L75.4502 68.8673C76.0989 68.1126 76.295 67.0731 75.9331 66.1266L74.8565 63.3105C74.2492 61.7223 73.0704 60.3865 71.5306 59.5422L65.7746 56.3857Z" fill="#D9D9D9"/>
</svg>
