<svg width="100" height="100" viewBox="0 0 100 100" fill="none" xmlns="http://www.w3.org/2000/svg">
<path fill-rule="evenodd" clip-rule="evenodd" d="M100 50C100 77.6142 77.6142 100 50 100C22.3858 100 0 77.6142 0 50C0 22.3858 22.3858 0 50 0C77.6142 0 100 22.3858 100 50ZM25 81.2269C15.8554 73.8962 10 62.6319 10 50C10 27.9086 27.9086 10 50 10C72.0914 10 90 27.9086 90 50C90 62.6319 84.1446 73.8963 75 81.2269V75C75 64.5849 68.6312 55.6574 59.5756 51.8995C61.0996 49.8278 62 47.2691 62 44.5C62 37.5964 56.4036 32 49.5 32C42.5964 32 37 37.5964 37 44.5C37 47.4164 37.9987 50.0995 39.6729 52.226C31.0184 56.1567 25 64.8755 25 75V81.2269Z" fill="#D9D9D9"/>
</svg>
