<svg width="100" height="100" viewBox="0 0 100 100" fill="none" xmlns="http://www.w3.org/2000/svg">
<path fill-rule="evenodd" clip-rule="evenodd" d="M40 2C40 0.895431 40.8954 0 42 0H58C59.1046 0 60 0.895431 60 2V21.0294C60 22.8112 62.1543 23.7036 63.4142 22.4436L76.87 8.98782C77.6511 8.20677 78.9174 8.20677 79.6985 8.98782L91.0122 20.3015C91.7932 21.0826 91.7932 22.3489 91.0122 23.13L77.5563 36.5858C76.2964 37.8457 77.1887 40 78.9705 40H98C99.1046 40 100 40.8954 100 42V58C100 59.1046 99.1046 60 98 60H78.9706C77.1887 60 76.2964 62.1543 77.5563 63.4142L91.0122 76.87C91.7932 77.6511 91.7932 78.9174 91.0122 79.6985L79.6985 91.0122C78.9174 91.7932 77.6511 91.7932 76.87 91.0122L63.4142 77.5564C62.1543 76.2964 60 77.1888 60 78.9706V98C60 99.1046 59.1046 100 58 100H42C40.8954 100 40 99.1046 40 98V78.9705C40 77.1887 37.8457 76.2964 36.5858 77.5563L23.1299 91.0122C22.3489 91.7932 21.0825 91.7932 20.3015 91.0122L8.98779 79.6985C8.20674 78.9175 8.20674 77.6511 8.98779 76.8701L22.4437 63.4142C23.7036 62.1543 22.8113 60 21.0295 60H2C0.895431 60 0 59.1046 0 58V42C0 40.8954 0.895429 40 2 40H21.0295C22.8113 40 23.7036 37.8457 22.4437 36.5858L8.98779 23.1299C8.20674 22.3489 8.20675 21.0825 8.98779 20.3015L20.3015 8.98782C21.0825 8.20677 22.3489 8.20677 23.1299 8.98782L36.5858 22.4437C37.8457 23.7036 40 22.8113 40 21.0295V2ZM50 70C61.0457 70 70 61.0457 70 50C70 38.9543 61.0457 30 50 30C38.9543 30 30 38.9543 30 50C30 61.0457 38.9543 70 50 70Z" fill="#D9D9D9"/>
</svg>
