<svg width="101" height="101" viewBox="0 0 101 101" fill="none" xmlns="http://www.w3.org/2000/svg">
<path fill-rule="evenodd" clip-rule="evenodd" d="M88.265 3.11656C93.8158 0.255835 100.166 5.18657 98.0855 10.7418L92.6533 24.5704C90.9628 28.8741 87.6782 32.4963 83.3917 34.7842L76.9148 38.2411C73.6798 39.9678 69.7414 39.8814 66.6741 38.1037L86.1075 15.9438C86.4031 15.6068 86.3558 15.1158 86.0013 14.8405C85.6468 14.5652 85.116 14.6074 84.8086 14.9353L64.5996 36.4929C62.1752 34.0064 61.3994 30.4324 62.6752 27.1845L65.2295 20.6819C66.9201 16.3783 70.2047 12.7561 74.4912 10.4682L88.265 3.11656ZM77.9311 39.9051C73.9487 42.0307 69.0838 41.882 65.3492 39.6145L55.7876 50.5175L57.3021 95.1088C57.3997 97.9829 55.0963 100.366 52.2206 100.366C49.3448 100.366 47.0414 97.9829 47.139 95.1088L47.8898 73.0027L38.0625 61.7966C34.0726 64.2191 28.8752 64.378 24.6206 62.1071L17.7011 58.4138C12.6612 55.7239 8.79943 51.4651 6.8118 46.4052L1.00298 31.6177C-1.90702 23.8902 6.93389 17.0256 14.6525 21.0193L29.3814 28.8807C34.4213 31.5706 38.2831 35.8294 40.2707 40.8893L42.9996 47.8364C44.6776 52.1079 43.606 56.8166 40.3352 60.0319L48.0508 68.2624L49.6307 21.7453C49.6782 20.3492 50.8236 19.242 52.2206 19.242C53.6175 19.242 54.7629 20.3492 54.8104 21.7453L55.636 46.0547L63.2218 37.9627C60.1602 34.9531 59.1572 30.5456 60.7278 26.5473L63.2822 20.0446C65.1427 15.3084 68.7574 11.3221 73.4748 8.8042L87.2615 1.4457C94.4864 -2.29256 102.762 4.13297 100.038 11.3661L94.6007 25.2077C92.7402 29.9439 89.1255 33.9302 84.408 36.4481L77.9311 39.9051ZM13.649 22.6901C7.60443 19.574 0.688744 24.9438 2.95539 30.9933L8.75916 45.768C10.5768 50.3953 14.1085 54.2899 18.7174 56.7499L25.6369 60.4431C29.1441 62.315 33.415 62.2185 36.7376 60.2859L15.8854 36.5082C15.5697 36.1481 15.6202 35.6235 15.9989 35.3295C16.3777 35.0354 16.9447 35.0804 17.2731 35.4307L38.9575 58.5622C41.5911 55.8699 42.4354 51.9947 41.0523 48.4736L38.3233 41.5266C36.5056 36.8993 32.974 33.0046 28.3651 30.5446L13.649 22.6901Z" fill="#D9D9D9"/>
</svg>
