<svg width="100" height="100" viewBox="0 0 100 100" fill="none" xmlns="http://www.w3.org/2000/svg">
<path fill-rule="evenodd" clip-rule="evenodd" d="M39.2105 4C36.3328 4 34 6.33283 34 9.21053C34 12.0882 36.3328 14.4211 39.2105 14.4211H90.7895C93.6672 14.4211 96 12.0882 96 9.21053C96 6.33283 93.6672 4 90.7895 4H39.2105ZM34 0C31.7909 0 30 1.79086 30 4V14.4211C30 16.6302 31.7909 18.4211 34 18.4211H34.4C36.6092 18.4211 38.4 20.2119 38.4 22.4211V54.2105V55.2632V58.2105V59.2632V69.6842C38.4 71.8933 40.1909 73.6842 42.4 73.6842L40 73.6842C34.4772 73.6842 30 69.2071 30 63.6842V31.0526C30 25.5298 25.5228 21.0526 20 21.0526H5.26316C2.3564 21.0526 0 23.409 0 26.3158C0 29.2226 2.3564 31.5789 5.26316 31.5789H10C15.5228 31.5789 20 36.0561 20 41.579V73.6842V76.7105C20 80.8527 23.3579 84.2105 27.5 84.2105C23.3579 84.2105 20 87.7451 20 92.1053C20 96.4654 23.3579 100 27.5 100C31.6421 100 35 96.4654 35 92.1053C35 87.7451 31.6421 84.2105 27.5 84.2105H30H92.5C88.3579 84.2105 85 87.7451 85 92.1053C85 96.4654 88.3579 100 92.5 100C96.6421 100 100 96.4654 100 92.1053C100 87.7451 96.6421 84.2105 92.5 84.2105H94.7368C97.6436 84.2105 100 81.8541 100 78.9474C100 76.0406 97.6436 73.6842 94.7368 73.6842L86.9 73.6842C89.1092 73.6842 90.9 71.8933 90.9 69.6842V59.2632V58.2105V55.2632V54.2105V22.4211C90.9 20.2119 92.6909 18.4211 94.9 18.4211H96C98.2091 18.4211 100 16.6302 100 14.4211V4C100 1.79086 98.2091 0 96 0H34ZM60.3474 22.4211C59.8241 22.4211 59.4 22.8452 59.4 23.3684V33.082C59.4 34.135 58.0966 34.6278 57.4 33.8381L56.1835 32.459C55.4756 31.6565 54.2244 31.6565 53.5165 32.459L52.3 33.8381C51.6034 34.6278 50.3 34.135 50.3 33.082V23.3684C50.3 22.8452 49.8758 22.4211 49.3526 22.4211H46.35C44.1685 22.4211 42.4 24.1895 42.4 26.371V44.2105C42.4 49.7334 46.8772 54.2105 52.4 54.2105H76.9C82.4229 54.2105 86.9 49.7334 86.9 44.2105V32.4211C86.9 26.8982 82.4229 22.4211 76.9 22.4211H60.3474ZM81.6895 59.2632C84.5672 59.2632 86.9 61.596 86.9 64.4737C86.9 67.3514 84.5672 69.6842 81.6895 69.6842H47.6105C44.7329 69.6842 42.4 67.3514 42.4 64.4737C42.4 61.596 44.7329 59.2632 47.6105 59.2632H81.6895ZM52.3 29.2273C52.3 29.7802 52.9844 30.039 53.3502 29.6243C54.1464 28.7217 55.5536 28.7217 56.3498 29.6243C56.7156 30.039 57.4 29.7802 57.4 29.2273V25.4112C57.4 24.283 56.4854 23.3684 55.3572 23.3684H54.3427C53.2146 23.3684 52.3 24.283 52.3 25.4112V29.2273ZM31 92.1053C31 94.4521 29.2421 96 27.5 96C25.7579 96 24 94.4521 24 92.1053C24 89.7585 25.7579 88.2105 27.5 88.2105C29.2421 88.2105 31 89.7585 31 92.1053ZM96 92.1053C96 94.4521 94.2421 96 92.5 96C90.7579 96 89 94.4521 89 92.1053C89 89.7585 90.7579 88.2105 92.5 88.2105C94.2421 88.2105 96 89.7585 96 92.1053Z" fill="#D9D9D9"/>
</svg>
