<svg width="81" height="70" viewBox="0 0 81 70" fill="none" xmlns="http://www.w3.org/2000/svg">
<path fill-rule="evenodd" clip-rule="evenodd" d="M76.7443 17.7947C81.3103 9.1135 71.9094 -0.287312 62.2151 3.26571L40.3084 11.6393C33.2642 14.3318 27.5043 19.2733 24.0671 25.5729L19.0424 34.7822C16.3389 39.737 16.8854 45.6364 20.3154 50.0962L55.2443 21.1208C55.7637 20.6899 56.5624 20.7266 57.039 21.2032C57.5156 21.6797 57.494 22.4202 56.9904 22.8669L23.1279 52.9087C27.6665 56.4176 33.9753 57.3735 39.5159 55.2557L49.8137 51.3195C56.858 48.6269 62.6178 43.6855 66.055 37.3859L76.7443 17.7947ZM21.6253 54.2418C26.7644 58.3203 33.9846 59.4539 40.3165 57.0336L50.6144 53.0973C58.1149 50.2304 64.2477 44.9689 67.9075 38.2613L78.6033 18.6583C84.0175 8.39236 72.8929 -2.73232 61.4278 1.48278L39.5077 9.86145C32.0073 12.7284 25.8744 17.9899 22.2146 24.6975L17.1898 33.9069C14.1002 39.5694 14.7683 46.324 18.7655 51.3819L1.79434 65.4605C0.765625 66.3138 0.696134 67.7869 1.64005 68.7308C2.58397 69.6747 4.17499 69.7232 5.17229 68.8384L21.6253 54.2418Z" fill="#D9D9D9"/>
</svg>
