<svg width="100" height="100" viewBox="0 0 100 100" fill="none" xmlns="http://www.w3.org/2000/svg">
<path fill-rule="evenodd" clip-rule="evenodd" d="M100 40C100 62.0914 82.0914 80 60 80C53.9296 80 48.175 78.6477 43.021 76.228C40.951 75.2562 38.4559 75.539 36.8389 77.156L15.4594 98.5355C14.5217 99.4732 13.25 100 11.9239 100H5C2.23858 100 0 97.7614 0 95V87.7818C0 86.4557 0.526784 85.1839 1.46447 84.2462L22.7498 62.9609C24.3598 61.3509 24.6477 58.8694 23.6902 56.8037C21.3218 51.6947 20 46.0017 20 40C20 17.9086 37.9086 0 60 0C82.0914 0 100 17.9086 100 40ZM60 70C76.5685 70 90 56.5685 90 40C90 23.4315 76.5685 10 60 10C43.4315 10 30 23.4315 30 40C30 56.5685 43.4315 70 60 70Z" fill="#D9D9D9"/>
</svg>
