<svg width="101" height="50" viewBox="0 0 101 50" fill="none" xmlns="http://www.w3.org/2000/svg">
<path fill-rule="evenodd" clip-rule="evenodd" d="M22.6343 19.4946C20.8565 19.4946 19.9624 17.3486 21.2142 16.0863L30.291 6.93306C31.0641 6.15339 31.0641 4.89619 30.291 4.11652L26.7936 0.589715C26.0112 -0.199259 24.7357 -0.199257 23.9534 0.589717L1.56116 23.1705C0.788004 23.9502 0.788003 25.2074 1.56116 25.9871L23.9534 48.5679C24.7357 49.3569 26.0112 49.3569 26.7936 48.5679L30.3941 44.9371C31.1673 44.1574 31.1673 42.9002 30.3941 42.1205L21.4205 33.0713C20.1687 31.809 21.0628 29.663 22.8406 29.663H88.9165C90.021 29.663 90.9165 30.5585 90.9165 31.663V48C90.9165 49.1046 91.8119 50 92.9165 50H99C100.105 50 101 49.1046 101 48V24.5788C101 21.7709 98.7427 19.4946 95.9582 19.4946H22.6343Z" fill="#D9D9D9"/>
</svg>
