<svg width="100" height="100" viewBox="0 0 100 100" fill="none" xmlns="http://www.w3.org/2000/svg">
<path fill-rule="evenodd" clip-rule="evenodd" d="M50 90C72.0914 90 90 72.0914 90 50C90 27.9086 72.0914 10 50 10C27.9086 10 10 27.9086 10 50C10 72.0914 27.9086 90 50 90ZM50 100C77.6142 100 100 77.6142 100 50C100 22.3858 77.6142 0 50 0C22.3858 0 0 22.3858 0 50C0 77.6142 22.3858 100 50 100ZM45 24.9244V20H55V24.6987C57.164 25.0176 59.1327 25.5875 60.9062 26.4084C63.8229 27.7341 66.085 29.5985 67.6925 32.0014C69.3 34.4044 70.1203 37.1884 70.1534 40.3537H58.3707C58.205 38.5308 57.4676 37.1139 56.1584 36.103C55.8121 35.8277 55.426 35.5894 55 35.3878V45.862L55.2635 45.9219C57.7824 46.4688 60.0031 47.1979 61.9254 48.1094C63.8643 49.0208 65.4884 50.1063 66.7976 51.3658C68.1233 52.6252 69.1259 54.0753 69.8054 55.7159C70.4848 57.3565 70.8329 59.196 70.8494 61.2344C70.8329 64.4493 70.0208 67.2086 68.4134 69.5121C66.8059 71.8156 64.4941 73.5805 61.478 74.8068C59.5701 75.5868 57.4108 76.1188 55 76.4027V80H45V76.2279C43.0045 75.9102 41.1641 75.4117 39.4787 74.7322C36.3134 73.4562 33.8525 71.5173 32.0959 68.9155C30.3393 66.3137 29.4361 63.0241 29.3864 59.0469H41.169C41.2685 60.6875 41.7076 62.0547 42.4865 63.1484C43.1278 64.0489 43.9656 64.7697 45 65.3107V54.3229L44.8977 54.299C40.4896 53.2881 37.0178 51.6558 34.4822 49.402C31.9467 47.1316 30.6873 44.0658 30.7038 40.2045C30.6873 37.0559 31.5324 34.2966 33.2393 31.9268C34.9463 29.5571 37.3078 27.7093 40.3239 26.3835C41.7836 25.7419 43.3423 25.2555 45 24.9244ZM45 36.1113C44.7095 36.3493 44.4599 36.6117 44.2514 36.8984C43.7211 37.611 43.4477 38.4313 43.4311 39.3594C43.398 40.1217 43.5471 40.7928 43.8786 41.3729C44.1569 41.8368 44.5307 42.2584 45 42.6375V36.1113ZM55 57.047V65.6844C56.0273 65.2486 56.8277 64.6684 57.4013 63.9439C58.031 63.1484 58.3542 62.237 58.3707 61.2095C58.3542 60.2483 58.0559 59.428 57.4759 58.7486C56.9297 58.0932 56.1044 57.526 55 57.047Z" fill="#D9D9D9"/>
</svg>
