<svg width="65" height="100" viewBox="0 0 65 100" fill="none" xmlns="http://www.w3.org/2000/svg">
<path fill-rule="evenodd" clip-rule="evenodd" d="M7 34C7 29.0294 11.0294 25 16 25H48C52.9706 25 57 29.0294 57 34C57 34.5523 56.5523 35 56 35H8C7.44772 35 7 34.5523 7 34ZM12 45C9.23858 45 7 47.2386 7 50C7 52.7614 9.23858 55 12 55H52C54.7614 55 57 52.7614 57 50C57 47.2386 54.7614 45 52 45H12ZM7 66C7 65.4477 7.44771 65 8 65H56C56.5523 65 57 65.4477 57 66C57 70.9706 52.9706 75 48 75H16C11.0294 75 7 70.9706 7 66Z" fill="#D9D9D9"/>
<path fill-rule="evenodd" clip-rule="evenodd" d="M0 5C0 2.23859 2.23853 0 5 0H60C62.7615 0 65 2.23859 65 5V95C65 97.7614 62.7615 100 60 100H5C2.23853 100 0 97.7614 0 95V5ZM3 23C3 20.2386 5.23853 18 8 18H57C59.7615 18 62 20.2386 62 23V90C62 92.7614 59.7615 95 57 95H8C5.23853 95 3 92.7614 3 90V23ZM9 4C7.89539 4 7 4.89545 7 6V12C7 13.1046 7.89539 14 9 14H55C56.1046 14 57 13.1046 57 12V6C57 4.89545 56.1046 4 55 4H9Z" fill="#D9D9D9"/>
</svg>
