<svg width="100" height="100" viewBox="0 0 100 100" fill="none" xmlns="http://www.w3.org/2000/svg">
<path fill-rule="evenodd" clip-rule="evenodd" d="M50 100C77.6143 100 100 77.6142 100 50C100 22.3858 77.6143 0 50 0C22.3857 0 0 22.3858 0 50C0 77.6142 22.3857 100 50 100ZM50 83.5C50 78.4377 53.0092 74.0783 57.3364 72.113C56.4994 71.0498 56 69.7082 56 68.25C56 64.7982 58.7982 62 62.25 62C65.7018 62 68.5 64.7982 68.5 68.25C68.5 69.6345 68.0498 70.9139 67.2878 71.9497C71.1845 73.5668 74.0862 77.0983 74.8194 81.3708C84.0674 74.0442 90 62.7149 90 50C90 27.9086 72.0914 10 50 10C27.9086 10 10 27.9086 10 50C10 56.9036 11.7488 63.3986 14.8278 69.0664C14.6416 68.7236 14.4603 68.3779 14.2839 68.0292C16.2538 65.53 18.807 63.5121 21.7383 62.1808C20.399 60.4796 19.6 58.3331 19.6 56C19.6 50.4772 24.0771 46 29.6 46C35.1228 46 39.6 50.4772 39.6 56C39.6 58.2153 38.8796 60.2623 37.6605 61.9196C44.9049 64.9259 50 72.0679 50 80.4V83.5Z" fill="#D9D9D9"/>
</svg>
