<svg width="100" height="100" viewBox="0 0 100 100" fill="none" xmlns="http://www.w3.org/2000/svg">
<path fill-rule="evenodd" clip-rule="evenodd" d="M4 12.5C4 7.80558 7.80558 4 12.5 4H87.5C92.1944 4 96 7.80558 96 12.5V12.5C96 17.1944 92.1944 21 87.5 21H12.5C7.80558 21 4 17.1944 4 12.5V12.5ZM0 4C0 1.79086 1.79086 0 4 0V0H96V0C98.2091 0 100 1.79086 100 4V4V21V21C100 23.2091 98.2091 25 96 25V25H91C88.7909 25 87 26.7909 87 29V29V75V79V96V96C87 98.2091 85.2091 100 83 100V100H16V100C13.7909 100 12 98.2091 12 96V96V79V75V29V29C12 26.7909 10.2091 25 8 25H4V25C1.79086 25 0 23.2091 0 21V21V4V4ZM73 29C78.5228 29 83 33.4772 83 39V65C83 70.5228 78.5228 75 73 75H26C20.4772 75 16 70.5228 16 65V35.5C16 31.9101 18.9101 29 22.5 29H27C28.1046 29 29 29.8954 29 31V31V46.0608V46.0608C29 47.1098 30.2862 47.6149 31 46.8462V46.8462L34.1354 43.4696V43.4696C34.8721 42.6762 36.1279 42.6762 36.8646 43.4696V43.4696L40 46.8462V46.8462C40.7138 47.6149 42 47.1098 42 46.0608V46.0608V31V31C42 29.8954 42.8954 29 44 29H73ZM24.5 96C19.8056 96 16 92.1944 16 87.5V87.5C16 82.8056 19.8056 79 24.5 79H74.5C79.1944 79 83 82.8056 83 87.5V87.5C83 92.1944 79.1944 96 74.5 96H24.5ZM34.0344 40.6391V40.6391C32.9514 41.8054 31 41.0391 31 39.4475V34.6393C31 32.6294 32.6294 31 34.6393 31H36.3607C38.3706 31 40 32.6294 40 34.6393V39.4475C40 41.0391 38.0486 41.8054 36.9656 40.6391V40.6391V40.6391C36.1743 39.787 34.8257 39.787 34.0344 40.6391V40.6391Z" fill="#D9D9D9"/>
</svg>
