<svg width="100" height="50" viewBox="0 0 100 50" fill="none" xmlns="http://www.w3.org/2000/svg">
<rect x="2" y="2" width="96" height="46" rx="8" stroke="#D9D9D9" stroke-width="4"/>
<circle cx="25" cy="25" r="13.5" stroke="#D9D9D9" stroke-width="3"/>
<rect x="25" y="24" width="13" height="2" fill="#D9D9D9"/>
<rect x="24" y="25" width="13" height="2" transform="rotate(-90 24 25)" fill="#D9D9D9"/>
<rect x="51" y="33" width="38" height="2" fill="#D9D9D9"/>
<rect x="50" y="35" width="20" height="2" transform="rotate(-90 50 35)" fill="#D9D9D9"/>
<rect x="15" y="33.1924" width="13" height="2" transform="rotate(-45 15 33.1924)" fill="#D9D9D9"/>
<rect x="54.5" y="24.5" width="4" height="10" rx="1.5" stroke="#D9D9D9"/>
<rect x="61.5" y="15.5" width="4" height="19" rx="1.5" stroke="#D9D9D9"/>
<rect x="68.5" y="19.5" width="4" height="15" rx="1.5" stroke="#D9D9D9"/>
<rect x="75.5" y="29.5" width="4" height="5" rx="1.5" stroke="#D9D9D9"/>
<rect x="82.5" y="23.5" width="4" height="11" rx="1.5" stroke="#D9D9D9"/>
</svg>
