<svg width="95" height="100" viewBox="0 0 95 100" fill="none" xmlns="http://www.w3.org/2000/svg">
<path fill-rule="evenodd" clip-rule="evenodd" d="M45.6917 0.567997C46.4685 -0.189334 47.7074 -0.189332 48.4841 0.568L93.5679 44.5247C94.8525 45.7771 93.9658 47.9567 92.1717 47.9567H86.0878C84.9832 47.9567 84.0878 48.8521 84.0878 49.9567V97.2067C84.0878 98.3113 83.1924 99.2067 82.0878 99.2067H59.5781C59.3051 99.2067 59.0878 98.9797 59.0878 98.7067V73.7067C59.0878 66.8031 53.4914 61.2067 46.5878 61.2067C39.6843 61.2067 34.0878 66.8031 34.0878 73.7067V98.7067C34.0878 98.9797 33.8705 99.2067 33.5975 99.2067H11.0878C9.98324 99.2067 9.08781 98.3113 9.08781 97.2067V49.9567C9.08781 48.8521 8.19238 47.9567 7.08781 47.9567H2.00402C0.20998 47.9567 -0.676717 45.7771 0.607819 44.5247L45.6917 0.567997Z" fill="#D9D9D9"/>
</svg>
