<svg width="100" height="100" viewBox="0 0 100 100" fill="none" xmlns="http://www.w3.org/2000/svg">
<path fill-rule="evenodd" clip-rule="evenodd" d="M5 5C5 2.23858 7.23858 0 10 0H42.9283H45C45.6465 0 46.2271 0.395699 46.4636 0.997424L64.4715 46.8285C65.2233 48.7418 67.0695 50 69.1252 50H95C97.7614 50 100 52.2386 100 55V72.3605C100 73.8182 98.8182 75 97.3605 75C96.6096 75 95.903 74.6711 95.3601 74.1524C92.6673 71.5799 89.0181 70 85 70C81.3612 70 78.0251 71.2957 75.4278 73.4508C74.3332 74.359 73.0066 75 71.5844 75H55C52.2386 75 50.0522 72.7389 49.5064 70.0319C47.2024 58.6048 37.1061 50 25 50C11.1929 50 0 61.1929 0 75V52.5C0 51.1193 1.11929 50 2.5 50C3.88071 50 5 48.8807 5 47.5V5ZM25.5 100C37.9264 100 48 89.9264 48 77.5C48 65.0736 37.9264 55 25.5 55C13.0736 55 3 65.0736 3 77.5C3 89.9264 13.0736 100 25.5 100ZM98 86.5C98 93.9558 91.9558 100 84.5 100C77.0442 100 71 93.9558 71 86.5C71 79.0442 77.0442 73 84.5 73C91.9558 73 98 79.0442 98 86.5Z" fill="#D9D9D9"/>
</svg>
