<svg width="50" height="100" viewBox="0 0 50 100" fill="none" xmlns="http://www.w3.org/2000/svg">
<path fill-rule="evenodd" clip-rule="evenodd" d="M15 5C9.47715 5 5 9.47715 5 15V85C5 90.5229 9.47715 95 15 95H35C40.5228 95 45 90.5229 45 85V59.5711C45 58.908 45.2634 58.2721 45.7322 57.8033C47.3071 56.2284 50 57.3438 50 59.5711V95C50 97.7614 47.7614 100 45 100H5C2.23858 100 0 97.7614 0 95V5C0 2.23858 2.23858 0 5 0H45C47.7614 0 50 2.23858 50 5V40.4289C50 42.6562 47.3071 43.7716 45.7322 42.1967C45.2634 41.7279 45 41.092 45 40.4289V15C45 9.47715 40.5228 5 35 5H15ZM43.7678 48.2322L27.8579 32.3223C26.8816 31.346 25.2986 31.346 24.3223 32.3223C23.346 33.2986 23.346 34.8816 24.3223 35.8579L32.5503 44.0858C33.8102 45.3457 32.9179 47.5 31.136 47.5H9C7.89543 47.5 7 48.3954 7 49.5V50.5C7 51.6046 7.89543 52.5 9 52.5H31.136C32.9178 52.5 33.8102 54.6543 32.5503 55.9142L24.3223 64.1421C23.346 65.1184 23.346 66.7014 24.3223 67.6777C25.2986 68.654 26.8816 68.654 27.8579 67.6777L43.7678 51.7678C44.7441 50.7915 44.7441 49.2085 43.7678 48.2322Z" fill="white"/>
</svg>
