<svg width="115" height="99" viewBox="0 0 115 99" fill="none" xmlns="http://www.w3.org/2000/svg">
<path fill-rule="evenodd" clip-rule="evenodd" d="M56.9669 0C82.4458 0 104.29 12.7103 113.51 30.7905C115.786 35.2537 112.119 40 107.109 40C103.85 40 101.014 37.9049 99.434 35.0542C92.2263 22.0485 76.1966 13 57.5791 13C39.1432 13 23.2449 21.8728 15.9376 34.6747C14.1926 37.7319 11.1344 40 7.61433 40C2.20308 40 -1.75339 34.8672 0.788575 30.0901C10.211 12.383 31.8182 0 56.9669 0ZM56.9669 24C84.5812 24 106.967 46.3857 106.967 74V89C106.967 94.5229 102.49 99 96.9669 99H16.9669C11.4441 99 6.96695 94.5229 6.96695 89V74C6.96695 46.3857 29.3527 24 56.9669 24ZM66.9669 69C66.9669 71.7614 69.2055 74 71.9669 74C74.7284 74 76.9669 71.7614 76.9669 69C76.9669 66.2386 74.7284 64 71.9669 64C69.2055 64 66.9669 66.2386 66.9669 69ZM51.9669 69C51.9669 71.7614 54.2055 74 56.9669 74C59.7284 74 61.9669 71.7614 61.9669 69C61.9669 66.2386 59.7284 64 56.9669 64C54.2055 64 51.9669 66.2386 51.9669 69ZM36.9669 69C36.9669 71.7614 39.2055 74 41.9669 74C44.7284 74 46.9669 71.7614 46.9669 69C46.9669 66.2386 44.7284 64 41.9669 64C39.2055 64 36.9669 66.2386 36.9669 69ZM41.9669 59C44.7284 59 46.9669 56.7614 46.9669 54C46.9669 51.2386 44.7284 49 41.9669 49C39.2055 49 36.9669 51.2386 36.9669 54C36.9669 56.7614 39.2055 59 41.9669 59ZM76.9669 54C76.9669 56.7614 74.7284 59 71.9669 59C69.2055 59 66.9669 56.7614 66.9669 54C66.9669 51.2386 69.2055 49 71.9669 49C74.7284 49 76.9669 51.2386 76.9669 54ZM61.9669 54C61.9669 56.7614 59.7284 59 56.9669 59C54.2055 59 51.9669 56.7614 51.9669 54C51.9669 51.2386 54.2055 49 56.9669 49C59.7284 49 61.9669 51.2386 61.9669 54ZM44.9669 83C44.9669 80.7908 46.7578 79 48.9669 79H65.9669C68.1761 79 69.9669 80.7908 69.9669 83V85C69.9669 87.2092 68.1761 89 65.9669 89H48.9669C46.7578 89 44.9669 87.2092 44.9669 85V83Z" fill="#D9D9D9"/>
</svg>
