<svg width="100" height="100" viewBox="0 0 100 100" fill="none" xmlns="http://www.w3.org/2000/svg">
<path fill-rule="evenodd" clip-rule="evenodd" d="M50 4C60.9729 4 71 14.8522 71 29.7619H62C62 21.8721 56.6274 15.4762 50 15.4762C43.3726 15.4762 38 21.8721 38 29.7619H29C29 14.8522 39.0271 4 50 4ZM25 29.7619C25 13.3249 36.1929 0 50 0C63.8071 0 75 13.3249 75 29.7619H95C97.7614 29.7619 100 32.0005 100 34.7619V48.5714C100 51.3328 97.7614 53.5714 95 53.5714C97.7614 53.5714 100 55.81 100 58.5714V72.381C100 74.2856 98.935 75.9415 97.3681 76.7857C98.935 77.6299 100 79.2858 100 81.1905V95C100 97.7614 97.7614 100 95 100H5C2.23858 100 0 97.7614 0 95V81.1905C0 79.2858 1.06497 77.6299 2.63193 76.7857C1.06497 75.9415 0 74.2856 0 72.381V58.5714C0 55.81 2.23858 53.5714 5 53.5714C2.23858 53.5714 0 51.3329 0 48.5714V34.7619C0 32.0005 2.23858 29.7619 5 29.7619H25ZM42 29.7619H58C58 23.3995 53.7932 19.4762 50 19.4762C46.2068 19.4762 42 23.3995 42 29.7619ZM4 81.1905C4 80.6382 4.44772 80.1905 5 80.1905H95C95.5523 80.1905 96 80.6382 96 81.1905V95C96 95.5523 95.5523 96 95 96H5C4.44772 96 4 95.5523 4 95V81.1905ZM90 83.3333C87.7909 83.3333 86 85.1242 86 87.3333V88.8571C86 91.0663 87.7909 92.8571 90 92.8571C92.2091 92.8571 94 91.0663 94 88.8571V87.3333C94 85.1242 92.2091 83.3333 90 83.3333ZM6 87.3333C6 85.1242 7.79086 83.3333 10 83.3333C12.2091 83.3333 14 85.1242 14 87.3333V88.8571C14 91.0663 12.2091 92.8571 10 92.8571C7.79086 92.8571 6 91.0663 6 88.8571V87.3333ZM95 57.5714H5C4.44772 57.5714 4 58.0191 4 58.5714V72.381C4 72.9332 4.44772 73.381 5 73.381H95C95.5523 73.381 96 72.9332 96 72.381V58.5714C96 58.0191 95.5523 57.5714 95 57.5714ZM86 64.7143C86 62.5051 87.7909 60.7143 90 60.7143C92.2091 60.7143 94 62.5051 94 64.7143V66.2381C94 68.4472 92.2091 70.2381 90 70.2381C87.7909 70.2381 86 68.4472 86 66.2381V64.7143ZM10 60.7143C7.79086 60.7143 6 62.5051 6 64.7143V66.2381C6 68.4472 7.79086 70.2381 10 70.2381C12.2091 70.2381 14 68.4472 14 66.2381V64.7143C14 62.5051 12.2091 60.7143 10 60.7143ZM5 33.7619H95C95.5523 33.7619 96 34.2096 96 34.7619V48.5714C96 49.1237 95.5523 49.5714 95 49.5714H5C4.44772 49.5714 4 49.1237 4 48.5714V34.7619C4 34.2096 4.44772 33.7619 5 33.7619ZM90 36.9048C87.7909 36.9048 86 38.6956 86 40.9048V42.4286C86 44.6377 87.7909 46.4286 90 46.4286C92.2091 46.4286 94 44.6377 94 42.4286V40.9048C94 38.6956 92.2091 36.9048 90 36.9048ZM6 40.9048C6 38.6956 7.79086 36.9048 10 36.9048C12.2091 36.9048 14 38.6956 14 40.9048V42.4286C14 44.6377 12.2091 46.4286 10 46.4286C7.79086 46.4286 6 44.6377 6 42.4286V40.9048Z" fill="#D9D9D9"/>
</svg>
