<svg width="100" height="100" viewBox="0 0 100 100" fill="none" xmlns="http://www.w3.org/2000/svg">
<path fill-rule="evenodd" clip-rule="evenodd" d="M0 2C0 0.895431 0.895429 0 2 0H98C99.1046 0 100 0.895431 100 2V18C100 19.1046 99.1046 20 98 20H2C0.895431 20 0 19.1046 0 18V2ZM0 82C0 80.8954 0.895429 80 2 80H98C99.1046 80 100 80.8954 100 82V98C100 99.1046 99.1046 100 98 100H2C0.895431 100 0 99.1046 0 98V82ZM100 42C100 40.8954 99.1046 40 98 40H2C0.895431 40 0 40.8954 0 42V58C0 59.1046 0.895429 60 2 60H98C99.1046 60 100 59.1046 100 58V42Z" fill="#D9D9D9"/>
</svg>
